<svg width="400" height="269" viewBox="0 0 400 269" fill="none" xmlns="http://www.w3.org/2000/svg">
<g clip-path="url(#clip0)">
<path d="M400 268H229.84V268.744H400V268Z" fill="#434343"/>
<path d="M386.983 257H216.823V257.744H386.983V257Z" fill="#434343"/>
<path d="M333.058 247H162.898V247.744H333.058V247Z" fill="#434343"/>
<path d="M122.448 213.704C121.416 213.704 120.374 213.688 119.351 213.656L119.374 212.912C120.843 212.958 122.342 212.971 123.818 212.95L123.828 213.695C123.369 213.701 122.909 213.704 122.448 213.704ZM128.304 213.531L128.26 212.789C129.731 212.702 131.221 212.58 132.689 212.426L132.767 213.166C131.288 213.321 129.786 213.444 128.304 213.531H128.304ZM114.88 213.416C113.396 213.302 111.897 213.153 110.423 212.972L110.514 212.234C111.976 212.413 113.464 212.561 114.936 212.674L114.88 213.416ZM137.208 212.597L137.097 211.862C138.558 211.64 140.031 211.382 141.474 211.096L141.619 211.825C140.165 212.114 138.681 212.374 137.208 212.597ZM105.993 212.325C104.527 212.077 103.048 211.791 101.596 211.476L101.754 210.748C103.194 211.061 104.662 211.345 106.117 211.591L105.993 212.325ZM145.99 210.851L145.811 210.129C147.246 209.774 148.689 209.381 150.1 208.963L150.311 209.676C148.889 210.098 147.436 210.494 145.99 210.851ZM97.2429 210.424C95.8052 210.042 94.3585 209.621 92.9428 209.173L93.1669 208.464C94.5718 208.908 96.0075 209.326 97.4339 209.705L97.2429 210.424ZM154.574 208.303L154.33 207.601C155.722 207.116 157.123 206.593 158.493 206.044L158.769 206.735C157.389 207.288 155.977 207.815 154.574 208.303ZM88.6939 207.721C87.2977 207.207 85.8927 206.653 84.5184 206.074L84.8072 205.388C86.1709 205.963 87.565 206.512 88.9507 207.022L88.6939 207.721ZM162.878 204.979L162.57 204.302C163.907 203.694 165.251 203.045 166.565 202.373L166.904 203.036C165.58 203.713 164.225 204.367 162.878 204.979ZM170.836 200.909L170.468 200.263C171.75 199.531 173.03 198.762 174.272 197.976L174.669 198.604C173.418 199.396 172.129 200.172 170.836 200.909ZM178.394 196.126L177.969 195.516C179.176 194.672 180.381 193.788 181.55 192.889L182.004 193.479C180.826 194.385 179.611 195.275 178.394 196.126ZM65.0303 195.078C63.8298 194.205 62.6306 193.292 61.4657 192.361L61.9298 191.78C63.0858 192.703 64.2759 193.61 65.4672 194.475L65.0303 195.078ZM185.489 190.67L185.01 190.101C186.135 189.151 187.255 188.161 188.339 187.158L188.844 187.705C187.752 188.715 186.623 189.713 185.489 190.67ZM58.0293 189.485C56.9112 188.506 55.8004 187.487 54.7279 186.457L55.2429 185.92C56.3074 186.942 57.4097 187.953 58.5192 188.926L58.0293 189.485ZM192.061 184.588L191.532 184.066C192.57 183.014 193.596 181.926 194.582 180.831L195.135 181.329C194.141 182.432 193.107 183.529 192.061 184.588ZM51.5686 183.282C50.5428 182.203 49.5297 181.087 48.5575 179.967L49.1193 179.479C50.0841 180.591 51.0894 181.698 52.1076 182.769L51.5686 183.282ZM198.057 177.932L197.482 177.459C198.419 176.318 199.342 175.14 200.226 173.959L200.821 174.404C199.931 175.595 199.001 176.782 198.057 177.932ZM45.7009 176.519C44.7797 175.354 43.8726 174.152 43.0048 172.946L43.6084 172.511C44.4697 173.708 45.3698 174.901 46.2841 176.058L45.7009 176.519ZM203.423 170.753L202.807 170.335C203.637 169.113 204.449 167.856 205.222 166.597L205.856 166.986C205.077 168.255 204.258 169.522 203.423 170.753ZM40.4752 169.254C39.6648 168.011 38.8716 166.732 38.1175 165.452L38.7581 165.074C39.5066 166.344 40.2938 167.614 41.0981 168.847L40.4752 169.254ZM208.114 163.111L207.463 162.751C208.177 161.459 208.871 160.131 209.526 158.805L210.193 159.135C209.533 160.471 208.834 161.808 208.114 163.111ZM212.086 155.067L211.405 154.768C211.998 153.414 212.567 152.027 213.097 150.646L213.791 150.913C213.257 152.305 212.683 153.702 212.086 155.067ZM32.1241 153.461C31.5539 152.092 31.0078 150.691 30.5012 149.298L31.2003 149.043C31.703 150.426 32.2448 151.816 32.8105 153.175L32.1241 153.461ZM215.303 146.684L214.597 146.45C215.061 145.05 215.499 143.62 215.898 142.199L216.614 142.4C216.212 143.833 215.77 145.274 215.303 146.684ZM29.0685 145.053C28.6259 143.635 28.2101 142.186 27.8325 140.747L28.552 140.558C28.9266 141.986 29.3394 143.424 29.7785 144.831L29.0685 145.053ZM217.727 138.06L217.002 137.892C217.335 136.457 217.64 134.993 217.907 133.539L218.639 133.674C218.369 135.139 218.062 136.614 217.727 138.06ZM26.7968 136.388C26.4866 134.935 26.2059 133.454 25.9625 131.987L26.6962 131.864C26.9379 133.321 27.2164 134.79 27.5242 136.233L26.7968 136.388ZM219.348 129.251L218.61 129.15C218.811 127.692 218.979 126.206 219.113 124.732L219.854 124.799C219.719 126.285 219.549 127.782 219.348 129.251H219.348ZM25.331 127.552C25.1556 126.079 25.0116 124.578 24.9028 123.093L25.6448 123.038C25.7524 124.513 25.8955 126.002 26.0697 127.464L25.331 127.552ZM220.156 120.33L219.413 120.297C219.48 118.822 219.513 117.327 219.513 115.852H220.257C220.257 117.338 220.223 118.845 220.156 120.33ZM24.6774 118.618C24.652 117.706 24.6391 116.775 24.6389 115.852C24.6389 115.279 24.6438 114.708 24.6536 114.137L25.3974 114.15C25.3876 114.717 25.3827 115.284 25.3827 115.852C25.3829 116.768 25.3958 117.692 25.4208 118.598L24.6774 118.618ZM25.5739 109.708L24.8316 109.662C24.9244 108.175 25.0526 106.673 25.2122 105.198L25.9516 105.278C25.7931 106.742 25.6662 108.232 25.5739 109.708H25.5739ZM219.033 105.168C218.884 103.701 218.68 102.986 218.464 101.525L219.2 101.417C219.417 102.889 219.604 104.012 219.754 105.49L219.033 105.168ZM26.5307 100.871L25.7956 100.757C26.0235 99.2848 26.2883 97.8011 26.5827 96.3464L27.3116 96.4939C27.0196 97.9375 26.7568 99.4099 26.5307 100.871H26.5307ZM217.714 97.1441C217.43 95.6926 217.11 94.2314 216.762 92.8013L217.485 92.6255C217.835 94.0664 218.158 95.5389 218.444 97.0013L217.714 97.1441ZM28.2925 92.158L27.5711 91.9771C27.9322 90.5359 28.3323 89.0827 28.7601 87.6577L29.4723 87.8717C29.0479 89.2858 28.651 90.7279 28.2925 92.158ZM215.612 88.5068C215.197 87.09 214.744 85.6647 214.265 84.2702L214.968 84.0283C215.451 85.4335 215.908 86.87 216.326 88.2975L215.612 88.5068ZM30.8529 83.6328L30.1513 83.3861C30.6456 81.9794 31.1793 80.566 31.7375 79.1851L32.4272 79.4642C31.8731 80.8343 31.3434 82.237 30.8529 83.6328ZM212.723 80.1002C212.181 78.7308 211.6 77.3564 210.996 76.0151L211.674 75.7096C212.283 77.0612 212.868 78.4461 213.415 79.8259L212.723 80.1002ZM34.1913 75.374L33.5154 75.0634C34.1366 73.7099 34.7978 72.3527 35.4806 71.0294L36.1416 71.3706C35.4639 72.6839 34.8078 74.0308 34.1913 75.374ZM209.083 72.0122C208.417 70.6986 207.712 69.3822 206.987 68.1001L207.634 67.7335C208.365 69.0256 209.075 70.3519 209.746 71.6758L209.083 72.0122ZM38.2736 67.4621L37.629 67.0908C38.371 65.8018 39.1535 64.5116 39.9548 63.2563L40.5817 63.6567C39.7865 64.9026 39.0098 66.183 38.2736 67.4621ZM204.713 64.2865C203.927 63.0348 203.104 61.7878 202.267 60.5801L202.878 60.1561C203.722 61.3731 204.551 62.6295 205.343 63.8908L204.713 64.2865ZM43.0611 59.9619L42.4531 59.5331C43.3106 58.3165 44.2071 57.1038 45.1183 55.9288L45.706 56.3848C44.8018 57.5511 43.9119 58.7545 43.0611 59.9619ZM199.654 56.9883C198.757 55.8138 197.824 54.6462 196.879 53.518L197.449 53.04C198.401 54.1769 199.342 55.3532 200.245 56.5366L199.654 56.9883ZM48.5106 52.9332L47.9444 52.4507C48.9067 51.32 49.9096 50.1945 50.9252 49.1056L51.4689 49.6132C50.4611 50.6939 49.4658 51.811 48.5106 52.9332ZM193.949 50.1769C192.949 49.0889 191.913 48.0105 190.868 46.9721L191.393 46.4441C192.445 47.4907 193.49 48.5771 194.496 49.6733L193.949 50.1769ZM54.5743 46.4325L54.0542 45.9006C55.1178 44.8596 56.2184 43.8304 57.3252 42.8418L57.8206 43.397C56.7222 44.378 55.6299 45.3993 54.5743 46.4325V46.4325ZM187.646 43.91C186.551 42.9164 185.42 41.9365 184.286 40.9975L184.76 40.4241C185.903 41.3703 187.042 42.3576 188.146 43.3588L187.646 43.91ZM61.2009 40.5124L60.7313 39.9354C61.8817 38.9982 63.0706 38.0738 64.2651 37.188L64.7082 37.7857C63.5226 38.665 62.3426 39.5823 61.2009 40.5124V40.5124ZM68.3347 35.2227L67.9196 34.6054C69.1508 33.7766 70.4183 32.9651 71.687 32.1928L72.0735 32.8287C70.8145 33.5949 69.5566 34.4005 68.3347 35.2227ZM75.9168 30.6086L75.5598 29.9557C76.8624 29.2427 78.198 28.5509 79.5294 27.8992L79.8562 28.5678C78.535 29.2143 77.2096 29.9009 75.9168 30.6086H75.9168ZM165.682 28.8846C164.358 28.225 163.003 27.5877 161.652 26.9905L161.953 26.31C163.314 26.9117 164.68 27.5539 166.014 28.2186L165.682 28.8846ZM83.8836 26.7102L83.5879 26.0275C84.9491 25.4372 86.3416 24.8711 87.7264 24.3448L87.9904 25.0406C86.6162 25.5628 85.2344 26.1245 83.8836 26.7102H83.8836ZM157.539 25.2835C156.161 24.7492 154.752 24.2395 153.349 23.7686L153.586 23.063C154.999 23.5377 156.42 24.0513 157.807 24.5899L157.539 25.2835ZM92.1801 23.5584L91.9484 22.8513C93.3619 22.3877 94.8041 21.9511 96.2347 21.5542L96.4335 22.2711C95.0138 22.6651 93.5827 23.0982 92.1801 23.5584ZM149.104 22.452C147.685 22.0474 146.239 21.6706 144.804 21.3322L144.974 20.6081C146.421 20.9491 147.878 21.3287 149.308 21.7362L149.104 22.452ZM100.742 21.1812L100.576 20.4558C102.025 20.1246 103.502 19.8229 104.964 19.5591L105.096 20.2912C103.645 20.5532 102.18 20.8526 100.742 21.1812ZM140.456 20.4122C139.008 20.1402 137.532 19.8983 136.071 19.693L136.174 18.9561C137.647 19.1631 139.134 19.4069 140.593 19.6808L140.456 20.4122ZM109.486 19.6025L109.388 18.8649C110.86 18.6684 112.357 18.503 113.838 18.3741L113.903 19.1153C112.433 19.2435 110.947 19.4074 109.486 19.6025ZM131.657 19.1756C130.192 19.0375 128.701 18.9311 127.225 18.8597L127.261 18.1163C128.748 18.1884 130.251 18.2956 131.727 18.4348L131.657 19.1756ZM118.338 18.8299L118.307 18.0865C119.674 18.0294 121.067 18.0004 122.448 18L122.785 18.0005L122.782 18.7447L122.448 18.7441C121.077 18.7445 119.694 18.7734 118.338 18.8299Z" fill="#434343"/>
<path d="M289.508 86.8247L287.648 99.4748C287.648 99.4748 279.467 115.845 284.673 132.588L291.367 128.496C291.367 128.496 296.574 108.404 296.574 106.916C296.574 105.428 298.805 87.9409 298.805 87.9409L289.508 86.8247Z" fill="#FFB8B8"/>
<path d="M293.227 127.379L284.301 133.332L288.764 155.284C288.764 155.284 289.88 185.049 289.508 186.165C289.136 187.281 282.442 232.673 282.442 232.673C282.442 232.673 290.251 236.393 297.318 234.161C297.318 234.161 304.384 200.675 304.384 191.002L312.565 157.144L325.21 195.839C325.21 195.839 325.954 221.883 327.441 230.44C328.929 238.998 328.929 240.114 328.929 240.114C328.929 240.114 340.83 243.462 343.805 240.114C343.805 240.114 342.317 196.211 341.201 191.746L338.598 138.541L293.227 127.379Z" fill="#434343"/>
<path d="M285.417 232.673C285.417 232.673 284.673 231.556 282.442 234.533C280.21 237.509 273.144 243.09 273.144 243.09C273.144 243.09 253.806 256.857 268.31 257.601C282.814 258.345 285.417 250.904 285.417 250.904C285.417 250.904 297.69 248.671 298.061 246.067C298.433 243.462 296.574 233.045 296.574 233.045L285.417 232.673Z" fill="#434343"/>
<path d="M329.673 239.37C329.673 239.37 327.07 248.299 327.813 252.02C328.557 255.74 326.326 269.507 336.739 268.39C347.152 267.274 343.805 255.368 343.805 255.368L340.458 240.114L329.673 239.37Z" fill="#434343"/>
<path d="M314.983 44.5958C321.761 44.5958 327.255 39.0988 327.255 32.3178C327.255 25.5368 321.761 20.0398 314.983 20.0398C308.205 20.0398 302.71 25.5368 302.71 32.3178C302.71 39.0988 308.205 44.5958 314.983 44.5958Z" fill="#FFB8B8"/>
<path d="M307.731 38.8289C307.731 38.8289 311.45 51.8511 308.475 56.6878C305.499 61.5246 328.557 57.432 330.045 52.9672C330.045 52.9672 322.607 44.7819 323.722 36.9686L307.731 38.8289Z" fill="#FFB8B8"/>
<path d="M313.681 56.3157C313.681 56.3157 323.862 57.0043 328.813 51.4512L347.152 59.2922L339.342 102.451C339.342 102.451 354.962 138.913 340.83 142.262C326.698 145.61 285.789 142.262 287.648 129.984C289.508 117.706 296.946 102.823 296.946 102.823C296.946 102.823 298.805 86.4527 294.714 79.0115C290.623 71.5702 293.227 63.0128 293.227 63.0128L309.597 52.1617C309.597 52.1617 310.334 56.3157 313.681 56.3157Z" fill="#284E63"/>
<path d="M297.69 63.3849H293.227C293.227 63.3849 288.02 64.5011 289.136 78.6394L286.533 88.685C286.533 88.685 299.549 92.0336 301.409 90.1733C303.268 88.313 297.69 63.3849 297.69 63.3849Z" fill="#284E63"/>
<path d="M351.615 85.7086L350.127 98.7307C350.127 98.7307 351.987 115.846 345.665 129.24L343.433 135.937C343.433 135.937 341.202 155.284 335.252 155.284C329.301 155.284 335.252 133.332 335.252 133.332L338.227 111.381C338.227 111.381 340.458 102.823 338.971 99.1028C337.483 95.3822 337.111 87.5689 337.111 87.5689L351.615 85.7086Z" fill="#FFB8B8"/>
<path d="M311.968 24.2839C313.789 23.9989 315.625 23.8168 317.467 23.7385C318.801 23.6817 320.192 23.6908 321.397 24.2653C323.216 25.1316 324.235 27.09 324.901 28.9911C325.568 30.8923 326.042 32.924 327.279 34.5137C329.338 32.3639 329.749 29.1677 330.055 26.2063C330.271 24.1233 330.462 21.9023 329.499 20.0429C328.907 18.8976 327.928 18.0051 326.937 17.18C322.207 13.2411 316.199 10.1418 310.108 11.0265L309.966 11.9672C308.926 11.9359 307.886 12.0013 306.859 12.1625L307.077 14.4965L303.842 14.7018L303.717 17.1342L300.446 17.2477C300.509 18.1824 300.915 19.0607 301.587 19.7134C301.084 20.0772 300.512 20.3355 299.906 20.4728C300.452 22.5857 300.982 24.7035 301.545 26.8117C301.961 28.3647 301.886 29.7368 303.551 28.9789C304.819 28.4018 305.677 26.5668 306.958 25.8086C308.468 24.9154 310.256 24.5518 311.968 24.2839Z" fill="#434343"/>
<path d="M341.945 59.6643H347.152C347.152 59.6643 355.706 88.313 354.218 88.6851C352.73 89.0571 335.251 90.1733 335.251 90.1733L341.945 59.6643Z" fill="#284E63"/>
<path d="M120.48 144.68C137.117 144.68 150.604 131.187 150.604 114.543C150.604 97.8991 137.117 84.4064 120.48 84.4064C103.844 84.4064 90.3567 97.8991 90.3567 114.543C90.3567 131.187 103.844 144.68 120.48 144.68Z" fill="#DB6F6B"/>
<path d="M139.447 111.567H123.456V95.5682H117.505V111.567H101.514V117.52H117.505V133.518H123.456V117.52H139.447V111.567Z" fill="white"/>
<path d="M67.5967 165.452H26.6311V213.199H67.5967V165.452Z" fill="#8CBACF"/>
<path d="M83.5056 213.597H26.2334V156.3H83.5056V213.597ZM27.0288 212.801H82.7102V157.096H27.0288V212.801Z" fill="#434343"/>
<path d="M72.9997 173H38V173.795H72.9997V173Z" fill="#434343"/>
<path d="M72.9997 182H38V182.796H72.9997V182Z" fill="#434343"/>
<path d="M72.9997 191H38V191.795H72.9997V191Z" fill="#434343"/>
<path d="M166.161 8.49585H83.5994V49.4841H166.161V8.49585Z" fill="#8CBACF"/>
<path d="M182.896 49.8562H83.2275V0H182.896V49.8562ZM83.9713 49.112H182.152V0.744122H83.9713V49.112Z" fill="#434343"/>
<path d="M151.53 22H98V22.7438H151.53V22Z" fill="#434343"/>
<path d="M151.53 29H98V29.7438H151.53V29Z" fill="#434343"/>
<path d="M151.53 36H98V36.7438H151.53V36Z" fill="#434343"/>
<path d="M232.422 111.939H197.091V149.517H232.422V111.939Z" fill="#8CBACF"/>
<path d="M241.347 149.889H196.719V105.242H241.347V149.889ZM197.463 149.145H240.603V105.986H197.463V149.145Z" fill="#434343"/>
<path d="M226.545 125H202V125.744H226.545V125Z" fill="#434343"/>
<path d="M226.545 130H202V130.744H226.545V130Z" fill="#434343"/>
<path d="M226.545 135H202V135.744H226.545V135Z" fill="#434343"/>
<path d="M218.142 49H47.9817V49.7438H218.142V49Z" fill="#434343"/>
<path d="M265.706 149H172.36V149.744H265.706V149Z" fill="#434343"/>
<path d="M109.739 213H0V213.744H109.739V213Z" fill="#434343"/>
</g>
<defs>
<clipPath id="clip0">
<rect width="400" height="269" fill="white"/>
</clipPath>
</defs>
</svg>
