<svg width="105" height="30" viewBox="0 0 105 30" fill="none" xmlns="http://www.w3.org/2000/svg">
<path d="M9.84 21.92H21.2V29H2.98023e-08V22.32L11.2 7.72H2.98023e-08V0.68H21.2V7.36L9.84 21.92ZM33.8753 0.68V16.64C33.8753 17.9467 34.1553 18.9867 34.7153 19.76C35.302 20.5067 36.2353 20.88 37.5153 20.88C38.7953 20.88 39.742 20.5067 40.3553 19.76C40.9686 18.9867 41.2753 17.9467 41.2753 16.64V0.68H50.1153V16.64C50.1153 19.3333 49.5553 21.64 48.4353 23.56C47.3153 25.4533 45.782 26.88 43.8353 27.84C41.8886 28.8 39.7153 29.28 37.3153 29.28C34.9153 29.28 32.782 28.8 30.9153 27.84C29.0753 26.88 27.6353 25.4533 26.5953 23.56C25.5553 21.6667 25.0353 19.36 25.0353 16.64V0.68H33.8753ZM61.3853 0.68L67.2253 20.16L73.0253 0.68H82.4653L72.9453 29H61.4653L51.9453 0.68H61.3853ZM93.3331 0.68V29H84.4531V0.68H93.3331Z" fill="#F26C4F"/>
<path d="M104.92 20.52V29H96.12V20.52H104.92Z" fill="#F4399E"/>
</svg>
